<svg viewBox="0 0 1918 512" fill="none" xmlns="http://www.w3.org/2000/svg">
    <path
        d="M182.857 73.1429L0 256L256 512L292.571 475.429L73.1429 256L182.857 146.286L329.143 292.571L365.714 256L182.857 73.1429Z"
        fill="currentColor" />
    <path
        d="M219.429 36.5714L438.857 256L329.143 365.714L182.857 219.429L146.286 256L329.143 438.857L512 256L256 0L219.429 36.5714Z"
        fill="currentColor" />
    <path
        d="M698.31 391H636.872L730.486 119.822H804.372L897.854 391H836.415L768.488 181.79H766.37L698.31 391ZM694.47 284.409H839.593V329.164H694.47V284.409ZM1011.59 471.506C993.322 471.506 977.654 468.99 964.589 463.959C951.613 459.015 941.285 452.262 933.605 443.7C925.925 435.137 920.937 425.515 918.642 414.834L970.812 407.816C972.401 411.877 974.917 415.673 978.36 419.204C981.802 422.735 986.349 425.559 991.998 427.678C997.736 429.885 1004.71 430.988 1012.92 430.988C1025.19 430.988 1035.3 427.987 1043.24 421.984C1051.27 416.07 1055.29 406.139 1055.29 392.192V354.984H1052.91C1050.44 360.634 1046.73 365.974 1041.78 371.006C1036.84 376.038 1030.49 380.142 1022.72 383.32C1014.95 386.498 1005.68 388.087 994.911 388.087C979.64 388.087 965.737 384.556 953.202 377.494C940.755 370.344 930.824 359.442 923.409 344.789C916.082 330.047 912.419 311.421 912.419 288.911C912.419 265.872 916.171 246.628 923.674 231.18C931.177 215.732 941.152 204.168 953.599 196.488C966.134 188.808 979.86 184.968 994.779 184.968C1006.17 184.968 1015.7 186.91 1023.38 190.794C1031.06 194.59 1037.24 199.357 1041.92 205.095C1046.68 210.744 1050.35 216.306 1052.91 221.779H1055.03V187.617H1111.04V392.986C1111.04 410.288 1106.8 424.765 1098.32 436.417C1089.85 448.069 1078.11 456.808 1063.1 462.634C1048.18 468.549 1031.02 471.506 1011.59 471.506ZM1012.79 345.715C1021.88 345.715 1029.56 343.464 1035.83 338.962C1042.18 334.372 1047.04 327.84 1050.39 319.366C1053.83 310.803 1055.56 300.563 1055.56 288.646C1055.56 276.729 1053.88 266.401 1050.52 257.662C1047.17 248.835 1042.31 241.993 1035.96 237.138C1029.6 232.283 1021.88 229.856 1012.79 229.856C1003.52 229.856 995.706 232.372 989.35 237.403C982.994 242.346 978.183 249.232 974.917 258.059C971.651 266.887 970.018 277.082 970.018 288.646C970.018 300.387 971.651 310.538 974.917 319.101C978.271 327.575 983.082 334.152 989.35 338.83C995.706 343.42 1003.52 345.715 1012.79 345.715ZM1188.89 394.443C1180.15 394.443 1172.65 391.353 1166.38 385.174C1160.2 378.906 1157.11 371.403 1157.11 362.664C1157.11 354.013 1160.2 346.598 1166.38 340.419C1172.65 334.24 1180.15 331.15 1188.89 331.15C1197.37 331.15 1204.78 334.24 1211.14 340.419C1217.49 346.598 1220.67 354.013 1220.67 362.664C1220.67 368.49 1219.17 373.831 1216.17 378.686C1213.26 383.453 1209.42 387.292 1204.65 390.206C1199.88 393.03 1194.63 394.443 1188.89 394.443ZM1341.93 394.31C1326.48 394.31 1312.49 390.338 1299.95 382.393C1287.51 374.36 1277.62 362.576 1270.29 347.04C1263.05 331.415 1259.44 312.26 1259.44 289.573C1259.44 266.269 1263.19 246.893 1270.69 231.445C1278.19 215.908 1288.17 204.3 1300.62 196.621C1313.15 188.852 1326.88 184.968 1341.8 184.968C1353.18 184.968 1362.67 186.91 1370.26 190.794C1377.94 194.59 1384.12 199.357 1388.8 205.095C1393.57 210.744 1397.19 216.306 1399.66 221.779H1401.38V119.822H1457.65V391H1402.04V358.427H1399.66C1397.01 364.076 1393.26 369.682 1388.4 375.243C1383.64 380.716 1377.41 385.262 1369.73 388.881C1362.14 392.501 1352.87 394.31 1341.93 394.31ZM1359.8 349.423C1368.9 349.423 1376.58 346.951 1382.84 342.008C1389.2 336.976 1394.05 329.958 1397.41 320.955C1400.85 311.951 1402.57 301.402 1402.57 289.308C1402.57 277.215 1400.89 266.71 1397.54 257.794C1394.19 248.879 1389.33 241.993 1382.97 237.138C1376.62 232.283 1368.9 229.856 1359.8 229.856C1350.53 229.856 1342.72 232.372 1336.37 237.403C1330.01 242.435 1325.2 249.408 1321.93 258.324C1318.67 267.24 1317.03 277.568 1317.03 289.308C1317.03 301.137 1318.67 311.597 1321.93 320.69C1325.29 329.694 1330.1 336.756 1336.37 341.875C1342.72 346.907 1350.53 349.423 1359.8 349.423ZM1596.72 394.972C1575.8 394.972 1557.79 390.735 1542.7 382.261C1527.69 373.698 1516.13 361.605 1508 345.98C1499.88 330.267 1495.82 311.686 1495.82 290.235C1495.82 269.314 1499.88 250.953 1508 235.152C1516.13 219.351 1527.56 207.037 1542.3 198.209C1557.13 189.382 1574.52 184.968 1594.47 184.968C1607.89 184.968 1620.38 187.131 1631.94 191.456C1643.59 195.694 1653.74 202.094 1662.4 210.656C1671.13 219.219 1677.93 229.988 1682.79 242.964C1687.64 255.852 1690.07 270.947 1690.07 288.249V303.741H1518.33V268.785H1636.97C1636.97 260.663 1635.21 253.469 1631.68 247.202C1628.15 240.934 1623.25 236.035 1616.98 232.504C1610.8 228.885 1603.6 227.075 1595.4 227.075C1586.83 227.075 1579.24 229.061 1572.62 233.034C1566.09 236.918 1560.97 242.17 1557.26 248.79C1553.55 255.323 1551.66 262.605 1551.57 270.638V303.873C1551.57 313.937 1553.42 322.632 1557.13 329.958C1560.92 337.285 1566.26 342.935 1573.15 346.907C1580.04 350.879 1588.2 352.866 1597.65 352.866C1603.91 352.866 1609.65 351.983 1614.86 350.217C1620.07 348.452 1624.53 345.804 1628.23 342.273C1631.94 338.742 1634.77 334.416 1636.71 329.296L1688.88 332.739C1686.23 345.274 1680.8 356.22 1672.59 365.577C1664.47 374.846 1653.97 382.084 1641.08 387.292C1628.28 392.412 1613.49 394.972 1596.72 394.972ZM1911.03 187.617L1839.93 391H1776.37L1705.26 187.617H1764.85L1807.09 333.136H1809.21L1851.31 187.617H1911.03Z"
        fill="currentColor" />
</svg>
